<mxfile host="Electron" modified="2023-07-25T12:11:54.229Z" agent="Mozilla/5.0 (Windows NT 10.0; Win64; x64) AppleWebKit/537.36 (KHTML, like Gecko) draw.io/21.6.5 Chrome/114.0.5735.243 Electron/25.3.1 Safari/537.36" etag="MlBZnzvu2JCW-4rwlFGG" version="21.6.5" type="device">
  <diagram name="Page-1" id="6ad3Rm1qsVHDz7FgT_hK">
    <mxGraphModel dx="1500" dy="1287" grid="1" gridSize="10" guides="1" tooltips="1" connect="1" arrows="1" fold="1" page="0" pageScale="1" pageWidth="850" pageHeight="1100" math="0" shadow="0">
      <root>
        <mxCell id="0" />
        <mxCell id="1" parent="0" />
        <mxCell id="uXSnHk2QVBUiQrGJkphu-49" style="edgeStyle=orthogonalEdgeStyle;rounded=0;orthogonalLoop=1;jettySize=auto;html=1;exitX=0.5;exitY=0;exitDx=0;exitDy=0;endArrow=none;endFill=0;startArrow=block;startFill=1;" edge="1" parent="1" source="BsDPf5AFC3qmwfieT4uP-1" target="uXSnHk2QVBUiQrGJkphu-44">
          <mxGeometry relative="1" as="geometry" />
        </mxCell>
        <mxCell id="BsDPf5AFC3qmwfieT4uP-1" value="Asansör" style="swimlane;fontStyle=1;align=center;verticalAlign=top;childLayout=stackLayout;horizontal=1;startSize=26;horizontalStack=0;resizeParent=1;resizeParentMax=0;resizeLast=0;collapsible=1;marginBottom=0;whiteSpace=wrap;html=1;" parent="1" vertex="1">
          <mxGeometry x="220" y="60" width="200" height="94" as="geometry" />
        </mxCell>
        <mxCell id="BsDPf5AFC3qmwfieT4uP-2" value="+ yetiskinYolcuKapasitesi : Int = 6&lt;br&gt;+ BulunduguKatNo : Int" style="text;strokeColor=none;fillColor=none;align=left;verticalAlign=top;spacingLeft=4;spacingRight=4;overflow=hidden;rotatable=0;points=[[0,0.5],[1,0.5]];portConstraint=eastwest;whiteSpace=wrap;html=1;" parent="BsDPf5AFC3qmwfieT4uP-1" vertex="1">
          <mxGeometry y="26" width="200" height="34" as="geometry" />
        </mxCell>
        <mxCell id="BsDPf5AFC3qmwfieT4uP-3" value="" style="line;strokeWidth=1;fillColor=none;align=left;verticalAlign=middle;spacingTop=-1;spacingLeft=3;spacingRight=3;rotatable=0;labelPosition=right;points=[];portConstraint=eastwest;strokeColor=inherit;" parent="BsDPf5AFC3qmwfieT4uP-1" vertex="1">
          <mxGeometry y="60" width="200" height="8" as="geometry" />
        </mxCell>
        <mxCell id="BsDPf5AFC3qmwfieT4uP-4" value="+ HareketEt(Kat : Int) : Void" style="text;strokeColor=none;fillColor=none;align=left;verticalAlign=top;spacingLeft=4;spacingRight=4;overflow=hidden;rotatable=0;points=[[0,0.5],[1,0.5]];portConstraint=eastwest;whiteSpace=wrap;html=1;" parent="BsDPf5AFC3qmwfieT4uP-1" vertex="1">
          <mxGeometry y="68" width="200" height="26" as="geometry" />
        </mxCell>
        <mxCell id="uXSnHk2QVBUiQrGJkphu-1" style="edgeStyle=orthogonalEdgeStyle;rounded=0;orthogonalLoop=1;jettySize=auto;html=1;exitX=0.5;exitY=0;exitDx=0;exitDy=0;endArrow=diamondThin;endFill=1;" edge="1" parent="1" source="BsDPf5AFC3qmwfieT4uP-5" target="BsDPf5AFC3qmwfieT4uP-1">
          <mxGeometry relative="1" as="geometry" />
        </mxCell>
        <mxCell id="BsDPf5AFC3qmwfieT4uP-5" value="Kapı" style="swimlane;fontStyle=1;align=center;verticalAlign=top;childLayout=stackLayout;horizontal=1;startSize=26;horizontalStack=0;resizeParent=1;resizeParentMax=0;resizeLast=0;collapsible=1;marginBottom=0;whiteSpace=wrap;html=1;" parent="1" vertex="1">
          <mxGeometry x="20" y="250" width="160" height="80" as="geometry" />
        </mxCell>
        <mxCell id="BsDPf5AFC3qmwfieT4uP-6" value="&amp;nbsp;" style="text;strokeColor=none;fillColor=none;align=left;verticalAlign=top;spacingLeft=4;spacingRight=4;overflow=hidden;rotatable=0;points=[[0,0.5],[1,0.5]];portConstraint=eastwest;whiteSpace=wrap;html=1;" parent="BsDPf5AFC3qmwfieT4uP-5" vertex="1">
          <mxGeometry y="26" width="160" height="26" as="geometry" />
        </mxCell>
        <mxCell id="BsDPf5AFC3qmwfieT4uP-7" value="" style="line;strokeWidth=1;fillColor=none;align=left;verticalAlign=middle;spacingTop=-1;spacingLeft=3;spacingRight=3;rotatable=0;labelPosition=right;points=[];portConstraint=eastwest;strokeColor=inherit;" parent="BsDPf5AFC3qmwfieT4uP-5" vertex="1">
          <mxGeometry y="52" width="160" height="8" as="geometry" />
        </mxCell>
        <mxCell id="BsDPf5AFC3qmwfieT4uP-8" value="&amp;nbsp;" style="text;strokeColor=none;fillColor=none;align=left;verticalAlign=top;spacingLeft=4;spacingRight=4;overflow=hidden;rotatable=0;points=[[0,0.5],[1,0.5]];portConstraint=eastwest;whiteSpace=wrap;html=1;" parent="BsDPf5AFC3qmwfieT4uP-5" vertex="1">
          <mxGeometry y="60" width="160" height="20" as="geometry" />
        </mxCell>
        <mxCell id="uXSnHk2QVBUiQrGJkphu-2" style="edgeStyle=orthogonalEdgeStyle;rounded=0;orthogonalLoop=1;jettySize=auto;html=1;exitX=0.5;exitY=0;exitDx=0;exitDy=0;endArrow=diamondThin;endFill=1;" edge="1" parent="1" source="BsDPf5AFC3qmwfieT4uP-9" target="BsDPf5AFC3qmwfieT4uP-1">
          <mxGeometry relative="1" as="geometry" />
        </mxCell>
        <mxCell id="BsDPf5AFC3qmwfieT4uP-9" value="KatGöstergeIşığı" style="swimlane;fontStyle=1;align=center;verticalAlign=top;childLayout=stackLayout;horizontal=1;startSize=26;horizontalStack=0;resizeParent=1;resizeParentMax=0;resizeLast=0;collapsible=1;marginBottom=0;whiteSpace=wrap;html=1;" parent="1" vertex="1">
          <mxGeometry x="225" y="250" width="190" height="86" as="geometry" />
        </mxCell>
        <mxCell id="BsDPf5AFC3qmwfieT4uP-10" value="- katNo : Int" style="text;strokeColor=none;fillColor=none;align=left;verticalAlign=top;spacingLeft=4;spacingRight=4;overflow=hidden;rotatable=0;points=[[0,0.5],[1,0.5]];portConstraint=eastwest;whiteSpace=wrap;html=1;" parent="BsDPf5AFC3qmwfieT4uP-9" vertex="1">
          <mxGeometry y="26" width="190" height="26" as="geometry" />
        </mxCell>
        <mxCell id="BsDPf5AFC3qmwfieT4uP-11" value="" style="line;strokeWidth=1;fillColor=none;align=left;verticalAlign=middle;spacingTop=-1;spacingLeft=3;spacingRight=3;rotatable=0;labelPosition=right;points=[];portConstraint=eastwest;strokeColor=inherit;" parent="BsDPf5AFC3qmwfieT4uP-9" vertex="1">
          <mxGeometry y="52" width="190" height="8" as="geometry" />
        </mxCell>
        <mxCell id="BsDPf5AFC3qmwfieT4uP-12" value="+ katNumarasınıGöster() : Void" style="text;strokeColor=none;fillColor=none;align=left;verticalAlign=top;spacingLeft=4;spacingRight=4;overflow=hidden;rotatable=0;points=[[0,0.5],[1,0.5]];portConstraint=eastwest;whiteSpace=wrap;html=1;" parent="BsDPf5AFC3qmwfieT4uP-9" vertex="1">
          <mxGeometry y="60" width="190" height="26" as="geometry" />
        </mxCell>
        <mxCell id="uXSnHk2QVBUiQrGJkphu-3" style="edgeStyle=orthogonalEdgeStyle;rounded=0;orthogonalLoop=1;jettySize=auto;html=1;exitX=0.5;exitY=0;exitDx=0;exitDy=0;endArrow=diamondThin;endFill=1;" edge="1" parent="1" source="BsDPf5AFC3qmwfieT4uP-13" target="BsDPf5AFC3qmwfieT4uP-1">
          <mxGeometry relative="1" as="geometry" />
        </mxCell>
        <mxCell id="BsDPf5AFC3qmwfieT4uP-13" value="KontrolPaneli" style="swimlane;fontStyle=1;align=center;verticalAlign=top;childLayout=stackLayout;horizontal=1;startSize=26;horizontalStack=0;resizeParent=1;resizeParentMax=0;resizeLast=0;collapsible=1;marginBottom=0;whiteSpace=wrap;html=1;" parent="1" vertex="1">
          <mxGeometry x="430" y="250" width="160" height="120" as="geometry" />
        </mxCell>
        <mxCell id="BsDPf5AFC3qmwfieT4uP-14" value="+ katlar : Int[12]" style="text;strokeColor=none;fillColor=none;align=left;verticalAlign=top;spacingLeft=4;spacingRight=4;overflow=hidden;rotatable=0;points=[[0,0.5],[1,0.5]];portConstraint=eastwest;whiteSpace=wrap;html=1;" parent="BsDPf5AFC3qmwfieT4uP-13" vertex="1">
          <mxGeometry y="26" width="160" height="26" as="geometry" />
        </mxCell>
        <mxCell id="BsDPf5AFC3qmwfieT4uP-15" value="" style="line;strokeWidth=1;fillColor=none;align=left;verticalAlign=middle;spacingTop=-1;spacingLeft=3;spacingRight=3;rotatable=0;labelPosition=right;points=[];portConstraint=eastwest;strokeColor=inherit;" parent="BsDPf5AFC3qmwfieT4uP-13" vertex="1">
          <mxGeometry y="52" width="160" height="8" as="geometry" />
        </mxCell>
        <mxCell id="BsDPf5AFC3qmwfieT4uP-16" value="+ KapıAç() : Void&lt;br&gt;+ KapıKapat() : Void&lt;br&gt;+ AcilDurumSinyali() : Void" style="text;strokeColor=none;fillColor=none;align=left;verticalAlign=top;spacingLeft=4;spacingRight=4;overflow=hidden;rotatable=0;points=[[0,0.5],[1,0.5]];portConstraint=eastwest;whiteSpace=wrap;html=1;" parent="BsDPf5AFC3qmwfieT4uP-13" vertex="1">
          <mxGeometry y="60" width="160" height="60" as="geometry" />
        </mxCell>
        <mxCell id="uXSnHk2QVBUiQrGJkphu-4" value="Kat" style="swimlane;fontStyle=1;align=center;verticalAlign=top;childLayout=stackLayout;horizontal=1;startSize=26;horizontalStack=0;resizeParent=1;resizeParentMax=0;resizeLast=0;collapsible=1;marginBottom=0;whiteSpace=wrap;html=1;" vertex="1" parent="1">
          <mxGeometry x="1260" y="60" width="160" height="86" as="geometry" />
        </mxCell>
        <mxCell id="uXSnHk2QVBUiQrGJkphu-5" value="- katNo : Int" style="text;strokeColor=none;fillColor=none;align=left;verticalAlign=top;spacingLeft=4;spacingRight=4;overflow=hidden;rotatable=0;points=[[0,0.5],[1,0.5]];portConstraint=eastwest;whiteSpace=wrap;html=1;" vertex="1" parent="uXSnHk2QVBUiQrGJkphu-4">
          <mxGeometry y="26" width="160" height="26" as="geometry" />
        </mxCell>
        <mxCell id="uXSnHk2QVBUiQrGJkphu-6" value="" style="line;strokeWidth=1;fillColor=none;align=left;verticalAlign=middle;spacingTop=-1;spacingLeft=3;spacingRight=3;rotatable=0;labelPosition=right;points=[];portConstraint=eastwest;strokeColor=inherit;" vertex="1" parent="uXSnHk2QVBUiQrGJkphu-4">
          <mxGeometry y="52" width="160" height="8" as="geometry" />
        </mxCell>
        <mxCell id="uXSnHk2QVBUiQrGJkphu-7" value="&amp;nbsp;" style="text;strokeColor=none;fillColor=none;align=left;verticalAlign=top;spacingLeft=4;spacingRight=4;overflow=hidden;rotatable=0;points=[[0,0.5],[1,0.5]];portConstraint=eastwest;whiteSpace=wrap;html=1;" vertex="1" parent="uXSnHk2QVBUiQrGJkphu-4">
          <mxGeometry y="60" width="160" height="26" as="geometry" />
        </mxCell>
        <mxCell id="uXSnHk2QVBUiQrGJkphu-8" style="edgeStyle=orthogonalEdgeStyle;rounded=0;orthogonalLoop=1;jettySize=auto;html=1;exitX=1;exitY=0.5;exitDx=0;exitDy=0;endArrow=block;endFill=1;" edge="1" parent="1" source="BsDPf5AFC3qmwfieT4uP-2" target="uXSnHk2QVBUiQrGJkphu-4">
          <mxGeometry relative="1" as="geometry" />
        </mxCell>
        <mxCell id="uXSnHk2QVBUiQrGJkphu-13" style="edgeStyle=orthogonalEdgeStyle;rounded=0;orthogonalLoop=1;jettySize=auto;html=1;exitX=0.5;exitY=0;exitDx=0;exitDy=0;endArrow=diamond;endFill=0;" edge="1" parent="1" source="uXSnHk2QVBUiQrGJkphu-9" target="uXSnHk2QVBUiQrGJkphu-4">
          <mxGeometry relative="1" as="geometry" />
        </mxCell>
        <mxCell id="uXSnHk2QVBUiQrGJkphu-9" value="AsansörBoşluğuKapısı" style="swimlane;fontStyle=1;align=center;verticalAlign=top;childLayout=stackLayout;horizontal=1;startSize=26;horizontalStack=0;resizeParent=1;resizeParentMax=0;resizeLast=0;collapsible=1;marginBottom=0;whiteSpace=wrap;html=1;" vertex="1" parent="1">
          <mxGeometry x="960" y="230" width="160" height="90" as="geometry" />
        </mxCell>
        <mxCell id="uXSnHk2QVBUiQrGJkphu-10" value="- varışZili : String" style="text;strokeColor=none;fillColor=none;align=left;verticalAlign=top;spacingLeft=4;spacingRight=4;overflow=hidden;rotatable=0;points=[[0,0.5],[1,0.5]];portConstraint=eastwest;whiteSpace=wrap;html=1;" vertex="1" parent="uXSnHk2QVBUiQrGJkphu-9">
          <mxGeometry y="26" width="160" height="26" as="geometry" />
        </mxCell>
        <mxCell id="uXSnHk2QVBUiQrGJkphu-11" value="" style="line;strokeWidth=1;fillColor=none;align=left;verticalAlign=middle;spacingTop=-1;spacingLeft=3;spacingRight=3;rotatable=0;labelPosition=right;points=[];portConstraint=eastwest;strokeColor=inherit;" vertex="1" parent="uXSnHk2QVBUiQrGJkphu-9">
          <mxGeometry y="52" width="160" height="8" as="geometry" />
        </mxCell>
        <mxCell id="uXSnHk2QVBUiQrGJkphu-12" value="+ zilÇal() : Void" style="text;strokeColor=none;fillColor=none;align=left;verticalAlign=top;spacingLeft=4;spacingRight=4;overflow=hidden;rotatable=0;points=[[0,0.5],[1,0.5]];portConstraint=eastwest;whiteSpace=wrap;html=1;" vertex="1" parent="uXSnHk2QVBUiQrGJkphu-9">
          <mxGeometry y="60" width="160" height="30" as="geometry" />
        </mxCell>
        <mxCell id="uXSnHk2QVBUiQrGJkphu-39" style="edgeStyle=orthogonalEdgeStyle;rounded=0;orthogonalLoop=1;jettySize=auto;html=1;exitX=0.5;exitY=0;exitDx=0;exitDy=0;" edge="1" parent="1" source="uXSnHk2QVBUiQrGJkphu-14" target="uXSnHk2QVBUiQrGJkphu-9">
          <mxGeometry relative="1" as="geometry">
            <mxPoint x="1040" y="390" as="sourcePoint" />
          </mxGeometry>
        </mxCell>
        <mxCell id="uXSnHk2QVBUiQrGJkphu-14" value="SinyalIşığı" style="swimlane;fontStyle=1;align=center;verticalAlign=top;childLayout=stackLayout;horizontal=1;startSize=26;horizontalStack=0;resizeParent=1;resizeParentMax=0;resizeLast=0;collapsible=1;marginBottom=0;whiteSpace=wrap;html=1;" vertex="1" parent="1">
          <mxGeometry x="945" y="399" width="190" height="104" as="geometry" />
        </mxCell>
        <mxCell id="uXSnHk2QVBUiQrGJkphu-15" value="+ asansorGidişYönü : String&lt;br&gt;+ asansörünBulunduğuKat : Int" style="text;strokeColor=none;fillColor=none;align=left;verticalAlign=top;spacingLeft=4;spacingRight=4;overflow=hidden;rotatable=0;points=[[0,0.5],[1,0.5]];portConstraint=eastwest;whiteSpace=wrap;html=1;" vertex="1" parent="uXSnHk2QVBUiQrGJkphu-14">
          <mxGeometry y="26" width="190" height="44" as="geometry" />
        </mxCell>
        <mxCell id="uXSnHk2QVBUiQrGJkphu-16" value="" style="line;strokeWidth=1;fillColor=none;align=left;verticalAlign=middle;spacingTop=-1;spacingLeft=3;spacingRight=3;rotatable=0;labelPosition=right;points=[];portConstraint=eastwest;strokeColor=inherit;" vertex="1" parent="uXSnHk2QVBUiQrGJkphu-14">
          <mxGeometry y="70" width="190" height="8" as="geometry" />
        </mxCell>
        <mxCell id="uXSnHk2QVBUiQrGJkphu-17" value="+ asansörVardı() : Void" style="text;strokeColor=none;fillColor=none;align=left;verticalAlign=top;spacingLeft=4;spacingRight=4;overflow=hidden;rotatable=0;points=[[0,0.5],[1,0.5]];portConstraint=eastwest;whiteSpace=wrap;html=1;" vertex="1" parent="uXSnHk2QVBUiQrGJkphu-14">
          <mxGeometry y="78" width="190" height="26" as="geometry" />
        </mxCell>
        <mxCell id="uXSnHk2QVBUiQrGJkphu-37" style="edgeStyle=orthogonalEdgeStyle;rounded=0;orthogonalLoop=1;jettySize=auto;html=1;exitX=0.5;exitY=0;exitDx=0;exitDy=0;endArrow=diamond;endFill=0;" edge="1" parent="1" source="uXSnHk2QVBUiQrGJkphu-18" target="uXSnHk2QVBUiQrGJkphu-4">
          <mxGeometry relative="1" as="geometry" />
        </mxCell>
        <mxCell id="uXSnHk2QVBUiQrGJkphu-53" style="edgeStyle=orthogonalEdgeStyle;rounded=0;orthogonalLoop=1;jettySize=auto;html=1;exitX=0.75;exitY=0;exitDx=0;exitDy=0;entryX=1;entryY=0.5;entryDx=0;entryDy=0;endArrow=none;endFill=0;" edge="1" parent="1" source="uXSnHk2QVBUiQrGJkphu-18" target="uXSnHk2QVBUiQrGJkphu-45">
          <mxGeometry relative="1" as="geometry" />
        </mxCell>
        <mxCell id="uXSnHk2QVBUiQrGJkphu-18" value="&lt;i&gt;AsansörÇağırmaDüğmesi&lt;/i&gt;" style="swimlane;fontStyle=1;align=center;verticalAlign=top;childLayout=stackLayout;horizontal=1;startSize=26;horizontalStack=0;resizeParent=1;resizeParentMax=0;resizeLast=0;collapsible=1;marginBottom=0;whiteSpace=wrap;html=1;" vertex="1" parent="1">
          <mxGeometry x="1550" y="230" width="160" height="100" as="geometry" />
        </mxCell>
        <mxCell id="uXSnHk2QVBUiQrGJkphu-19" value="&amp;nbsp;" style="text;strokeColor=none;fillColor=none;align=left;verticalAlign=top;spacingLeft=4;spacingRight=4;overflow=hidden;rotatable=0;points=[[0,0.5],[1,0.5]];portConstraint=eastwest;whiteSpace=wrap;html=1;" vertex="1" parent="uXSnHk2QVBUiQrGJkphu-18">
          <mxGeometry y="26" width="160" height="26" as="geometry" />
        </mxCell>
        <mxCell id="uXSnHk2QVBUiQrGJkphu-20" value="" style="line;strokeWidth=1;fillColor=none;align=left;verticalAlign=middle;spacingTop=-1;spacingLeft=3;spacingRight=3;rotatable=0;labelPosition=right;points=[];portConstraint=eastwest;strokeColor=inherit;" vertex="1" parent="uXSnHk2QVBUiQrGJkphu-18">
          <mxGeometry y="52" width="160" height="8" as="geometry" />
        </mxCell>
        <mxCell id="uXSnHk2QVBUiQrGJkphu-21" value="+ AşağıÇağır() : Void&lt;br&gt;+ YukarıÇağır() : Void" style="text;strokeColor=none;fillColor=none;align=left;verticalAlign=top;spacingLeft=4;spacingRight=4;overflow=hidden;rotatable=0;points=[[0,0.5],[1,0.5]];portConstraint=eastwest;whiteSpace=wrap;html=1;" vertex="1" parent="uXSnHk2QVBUiQrGJkphu-18">
          <mxGeometry y="60" width="160" height="40" as="geometry" />
        </mxCell>
        <mxCell id="uXSnHk2QVBUiQrGJkphu-38" style="edgeStyle=orthogonalEdgeStyle;rounded=0;orthogonalLoop=1;jettySize=auto;html=1;exitX=0.5;exitY=0;exitDx=0;exitDy=0;endArrow=block;endFill=0;" edge="1" parent="1" source="uXSnHk2QVBUiQrGJkphu-22" target="uXSnHk2QVBUiQrGJkphu-18">
          <mxGeometry relative="1" as="geometry" />
        </mxCell>
        <mxCell id="uXSnHk2QVBUiQrGJkphu-22" value="SolBölgeDüğmesi" style="swimlane;fontStyle=1;align=center;verticalAlign=top;childLayout=stackLayout;horizontal=1;startSize=26;horizontalStack=0;resizeParent=1;resizeParentMax=0;resizeLast=0;collapsible=1;marginBottom=0;whiteSpace=wrap;html=1;" vertex="1" parent="1">
          <mxGeometry x="1370" y="408" width="160" height="86" as="geometry" />
        </mxCell>
        <mxCell id="uXSnHk2QVBUiQrGJkphu-23" value="&amp;nbsp;" style="text;strokeColor=none;fillColor=none;align=left;verticalAlign=top;spacingLeft=4;spacingRight=4;overflow=hidden;rotatable=0;points=[[0,0.5],[1,0.5]];portConstraint=eastwest;whiteSpace=wrap;html=1;" vertex="1" parent="uXSnHk2QVBUiQrGJkphu-22">
          <mxGeometry y="26" width="160" height="26" as="geometry" />
        </mxCell>
        <mxCell id="uXSnHk2QVBUiQrGJkphu-24" value="" style="line;strokeWidth=1;fillColor=none;align=left;verticalAlign=middle;spacingTop=-1;spacingLeft=3;spacingRight=3;rotatable=0;labelPosition=right;points=[];portConstraint=eastwest;strokeColor=inherit;" vertex="1" parent="uXSnHk2QVBUiQrGJkphu-22">
          <mxGeometry y="52" width="160" height="8" as="geometry" />
        </mxCell>
        <mxCell id="uXSnHk2QVBUiQrGJkphu-25" value="&amp;nbsp;" style="text;strokeColor=none;fillColor=none;align=left;verticalAlign=top;spacingLeft=4;spacingRight=4;overflow=hidden;rotatable=0;points=[[0,0.5],[1,0.5]];portConstraint=eastwest;whiteSpace=wrap;html=1;" vertex="1" parent="uXSnHk2QVBUiQrGJkphu-22">
          <mxGeometry y="60" width="160" height="26" as="geometry" />
        </mxCell>
        <mxCell id="uXSnHk2QVBUiQrGJkphu-35" style="edgeStyle=orthogonalEdgeStyle;rounded=0;orthogonalLoop=1;jettySize=auto;html=1;exitX=0.5;exitY=0;exitDx=0;exitDy=0;endArrow=block;endFill=0;" edge="1" parent="1" source="uXSnHk2QVBUiQrGJkphu-26" target="uXSnHk2QVBUiQrGJkphu-18">
          <mxGeometry relative="1" as="geometry" />
        </mxCell>
        <mxCell id="uXSnHk2QVBUiQrGJkphu-26" value="MerkezBölgeDüğmesi" style="swimlane;fontStyle=1;align=center;verticalAlign=top;childLayout=stackLayout;horizontal=1;startSize=26;horizontalStack=0;resizeParent=1;resizeParentMax=0;resizeLast=0;collapsible=1;marginBottom=0;whiteSpace=wrap;html=1;" vertex="1" parent="1">
          <mxGeometry x="1550" y="408" width="160" height="86" as="geometry" />
        </mxCell>
        <mxCell id="uXSnHk2QVBUiQrGJkphu-27" value="&amp;nbsp;" style="text;strokeColor=none;fillColor=none;align=left;verticalAlign=top;spacingLeft=4;spacingRight=4;overflow=hidden;rotatable=0;points=[[0,0.5],[1,0.5]];portConstraint=eastwest;whiteSpace=wrap;html=1;" vertex="1" parent="uXSnHk2QVBUiQrGJkphu-26">
          <mxGeometry y="26" width="160" height="26" as="geometry" />
        </mxCell>
        <mxCell id="uXSnHk2QVBUiQrGJkphu-28" value="" style="line;strokeWidth=1;fillColor=none;align=left;verticalAlign=middle;spacingTop=-1;spacingLeft=3;spacingRight=3;rotatable=0;labelPosition=right;points=[];portConstraint=eastwest;strokeColor=inherit;" vertex="1" parent="uXSnHk2QVBUiQrGJkphu-26">
          <mxGeometry y="52" width="160" height="8" as="geometry" />
        </mxCell>
        <mxCell id="uXSnHk2QVBUiQrGJkphu-29" value="&amp;nbsp;" style="text;strokeColor=none;fillColor=none;align=left;verticalAlign=top;spacingLeft=4;spacingRight=4;overflow=hidden;rotatable=0;points=[[0,0.5],[1,0.5]];portConstraint=eastwest;whiteSpace=wrap;html=1;" vertex="1" parent="uXSnHk2QVBUiQrGJkphu-26">
          <mxGeometry y="60" width="160" height="26" as="geometry" />
        </mxCell>
        <mxCell id="uXSnHk2QVBUiQrGJkphu-36" style="edgeStyle=orthogonalEdgeStyle;rounded=0;orthogonalLoop=1;jettySize=auto;html=1;exitX=0.5;exitY=0;exitDx=0;exitDy=0;endArrow=block;endFill=0;" edge="1" parent="1" source="uXSnHk2QVBUiQrGJkphu-30" target="uXSnHk2QVBUiQrGJkphu-18">
          <mxGeometry relative="1" as="geometry" />
        </mxCell>
        <mxCell id="uXSnHk2QVBUiQrGJkphu-30" value="SağBölgeDüğmesi" style="swimlane;fontStyle=1;align=center;verticalAlign=top;childLayout=stackLayout;horizontal=1;startSize=26;horizontalStack=0;resizeParent=1;resizeParentMax=0;resizeLast=0;collapsible=1;marginBottom=0;whiteSpace=wrap;html=1;" vertex="1" parent="1">
          <mxGeometry x="1730" y="408" width="160" height="86" as="geometry" />
        </mxCell>
        <mxCell id="uXSnHk2QVBUiQrGJkphu-31" value="&amp;nbsp;" style="text;strokeColor=none;fillColor=none;align=left;verticalAlign=top;spacingLeft=4;spacingRight=4;overflow=hidden;rotatable=0;points=[[0,0.5],[1,0.5]];portConstraint=eastwest;whiteSpace=wrap;html=1;" vertex="1" parent="uXSnHk2QVBUiQrGJkphu-30">
          <mxGeometry y="26" width="160" height="26" as="geometry" />
        </mxCell>
        <mxCell id="uXSnHk2QVBUiQrGJkphu-32" value="" style="line;strokeWidth=1;fillColor=none;align=left;verticalAlign=middle;spacingTop=-1;spacingLeft=3;spacingRight=3;rotatable=0;labelPosition=right;points=[];portConstraint=eastwest;strokeColor=inherit;" vertex="1" parent="uXSnHk2QVBUiQrGJkphu-30">
          <mxGeometry y="52" width="160" height="8" as="geometry" />
        </mxCell>
        <mxCell id="uXSnHk2QVBUiQrGJkphu-33" value="&amp;nbsp;" style="text;strokeColor=none;fillColor=none;align=left;verticalAlign=top;spacingLeft=4;spacingRight=4;overflow=hidden;rotatable=0;points=[[0,0.5],[1,0.5]];portConstraint=eastwest;whiteSpace=wrap;html=1;" vertex="1" parent="uXSnHk2QVBUiQrGJkphu-30">
          <mxGeometry y="60" width="160" height="26" as="geometry" />
        </mxCell>
        <mxCell id="uXSnHk2QVBUiQrGJkphu-40" value="Kullanıcı" style="swimlane;fontStyle=1;align=center;verticalAlign=top;childLayout=stackLayout;horizontal=1;startSize=26;horizontalStack=0;resizeParent=1;resizeParentMax=0;resizeLast=0;collapsible=1;marginBottom=0;whiteSpace=wrap;html=1;" vertex="1" parent="1">
          <mxGeometry x="670" y="-246" width="160" height="94" as="geometry" />
        </mxCell>
        <mxCell id="uXSnHk2QVBUiQrGJkphu-41" value="+ isim : String&lt;br&gt;+ soyisim : String" style="text;strokeColor=none;fillColor=none;align=left;verticalAlign=top;spacingLeft=4;spacingRight=4;overflow=hidden;rotatable=0;points=[[0,0.5],[1,0.5]];portConstraint=eastwest;whiteSpace=wrap;html=1;" vertex="1" parent="uXSnHk2QVBUiQrGJkphu-40">
          <mxGeometry y="26" width="160" height="34" as="geometry" />
        </mxCell>
        <mxCell id="uXSnHk2QVBUiQrGJkphu-42" value="" style="line;strokeWidth=1;fillColor=none;align=left;verticalAlign=middle;spacingTop=-1;spacingLeft=3;spacingRight=3;rotatable=0;labelPosition=right;points=[];portConstraint=eastwest;strokeColor=inherit;" vertex="1" parent="uXSnHk2QVBUiQrGJkphu-40">
          <mxGeometry y="60" width="160" height="8" as="geometry" />
        </mxCell>
        <mxCell id="uXSnHk2QVBUiQrGJkphu-43" value="+ butonKullan () : Void" style="text;strokeColor=none;fillColor=none;align=left;verticalAlign=top;spacingLeft=4;spacingRight=4;overflow=hidden;rotatable=0;points=[[0,0.5],[1,0.5]];portConstraint=eastwest;whiteSpace=wrap;html=1;" vertex="1" parent="uXSnHk2QVBUiQrGJkphu-40">
          <mxGeometry y="68" width="160" height="26" as="geometry" />
        </mxCell>
        <mxCell id="uXSnHk2QVBUiQrGJkphu-44" value="AsansörProgramlayıcısı" style="swimlane;fontStyle=1;align=center;verticalAlign=top;childLayout=stackLayout;horizontal=1;startSize=26;horizontalStack=0;resizeParent=1;resizeParentMax=0;resizeLast=0;collapsible=1;marginBottom=0;whiteSpace=wrap;html=1;" vertex="1" parent="1">
          <mxGeometry x="240" y="-160" width="160" height="86" as="geometry" />
        </mxCell>
        <mxCell id="uXSnHk2QVBUiQrGJkphu-45" value="- programID : Int" style="text;strokeColor=none;fillColor=none;align=left;verticalAlign=top;spacingLeft=4;spacingRight=4;overflow=hidden;rotatable=0;points=[[0,0.5],[1,0.5]];portConstraint=eastwest;whiteSpace=wrap;html=1;" vertex="1" parent="uXSnHk2QVBUiQrGJkphu-44">
          <mxGeometry y="26" width="160" height="26" as="geometry" />
        </mxCell>
        <mxCell id="uXSnHk2QVBUiQrGJkphu-46" value="" style="line;strokeWidth=1;fillColor=none;align=left;verticalAlign=middle;spacingTop=-1;spacingLeft=3;spacingRight=3;rotatable=0;labelPosition=right;points=[];portConstraint=eastwest;strokeColor=inherit;" vertex="1" parent="uXSnHk2QVBUiQrGJkphu-44">
          <mxGeometry y="52" width="160" height="8" as="geometry" />
        </mxCell>
        <mxCell id="uXSnHk2QVBUiQrGJkphu-47" value="+ asansörProgramla() : Void" style="text;strokeColor=none;fillColor=none;align=left;verticalAlign=top;spacingLeft=4;spacingRight=4;overflow=hidden;rotatable=0;points=[[0,0.5],[1,0.5]];portConstraint=eastwest;whiteSpace=wrap;html=1;" vertex="1" parent="uXSnHk2QVBUiQrGJkphu-44">
          <mxGeometry y="60" width="160" height="26" as="geometry" />
        </mxCell>
        <mxCell id="uXSnHk2QVBUiQrGJkphu-50" value="Asansör Çağır" style="text;html=1;strokeColor=none;fillColor=none;align=center;verticalAlign=middle;whiteSpace=wrap;rounded=0;" vertex="1" parent="1">
          <mxGeometry x="1300" y="240" width="80" height="30" as="geometry" />
        </mxCell>
        <mxCell id="uXSnHk2QVBUiQrGJkphu-52" value="Asansör Yönlendir" style="text;html=1;strokeColor=none;fillColor=none;align=center;verticalAlign=middle;whiteSpace=wrap;rounded=0;" vertex="1" parent="1">
          <mxGeometry x="318" y="-24" width="60" height="30" as="geometry" />
        </mxCell>
        <mxCell id="uXSnHk2QVBUiQrGJkphu-54" style="edgeStyle=orthogonalEdgeStyle;rounded=0;orthogonalLoop=1;jettySize=auto;html=1;exitX=1;exitY=0.5;exitDx=0;exitDy=0;entryX=0;entryY=0.5;entryDx=0;entryDy=0;" edge="1" parent="1" source="uXSnHk2QVBUiQrGJkphu-41" target="uXSnHk2QVBUiQrGJkphu-19">
          <mxGeometry relative="1" as="geometry" />
        </mxCell>
        <mxCell id="uXSnHk2QVBUiQrGJkphu-55" style="edgeStyle=orthogonalEdgeStyle;rounded=0;orthogonalLoop=1;jettySize=auto;html=1;exitX=0;exitY=0.5;exitDx=0;exitDy=0;entryX=1.01;entryY=0.923;entryDx=0;entryDy=0;entryPerimeter=0;" edge="1" parent="1" source="uXSnHk2QVBUiQrGJkphu-41" target="BsDPf5AFC3qmwfieT4uP-14">
          <mxGeometry relative="1" as="geometry">
            <mxPoint x="718.7999267578125" y="300" as="targetPoint" />
          </mxGeometry>
        </mxCell>
        <mxCell id="uXSnHk2QVBUiQrGJkphu-57" value="Gidilecek Kat Butonuna Bas" style="text;html=1;strokeColor=none;fillColor=none;align=center;verticalAlign=middle;whiteSpace=wrap;rounded=0;" vertex="1" parent="1">
          <mxGeometry x="630" y="-24" width="60" height="30" as="geometry" />
        </mxCell>
        <mxCell id="uXSnHk2QVBUiQrGJkphu-58" value="Hareket Et" style="text;html=1;strokeColor=none;fillColor=none;align=center;verticalAlign=middle;whiteSpace=wrap;rounded=0;" vertex="1" parent="1">
          <mxGeometry x="840" y="80" width="60" height="30" as="geometry" />
        </mxCell>
        <mxCell id="uXSnHk2QVBUiQrGJkphu-62" value="&lt;i&gt;KapıHareketleri&lt;/i&gt;" style="swimlane;fontStyle=1;align=center;verticalAlign=top;childLayout=stackLayout;horizontal=1;startSize=26;horizontalStack=0;resizeParent=1;resizeParentMax=0;resizeLast=0;collapsible=1;marginBottom=0;whiteSpace=wrap;html=1;" vertex="1" parent="1">
          <mxGeometry x="530" y="408" width="160" height="100" as="geometry" />
        </mxCell>
        <mxCell id="uXSnHk2QVBUiQrGJkphu-63" value="+ aksiyonSüresi : Int" style="text;strokeColor=none;fillColor=none;align=left;verticalAlign=top;spacingLeft=4;spacingRight=4;overflow=hidden;rotatable=0;points=[[0,0.5],[1,0.5]];portConstraint=eastwest;whiteSpace=wrap;html=1;" vertex="1" parent="uXSnHk2QVBUiQrGJkphu-62">
          <mxGeometry y="26" width="160" height="26" as="geometry" />
        </mxCell>
        <mxCell id="uXSnHk2QVBUiQrGJkphu-64" value="" style="line;strokeWidth=1;fillColor=none;align=left;verticalAlign=middle;spacingTop=-1;spacingLeft=3;spacingRight=3;rotatable=0;labelPosition=right;points=[];portConstraint=eastwest;strokeColor=inherit;" vertex="1" parent="uXSnHk2QVBUiQrGJkphu-62">
          <mxGeometry y="52" width="160" height="8" as="geometry" />
        </mxCell>
        <mxCell id="uXSnHk2QVBUiQrGJkphu-65" value="+ Açıl()&amp;nbsp; : Void&lt;br&gt;+ Kapan() : Void" style="text;strokeColor=none;fillColor=none;align=left;verticalAlign=top;spacingLeft=4;spacingRight=4;overflow=hidden;rotatable=0;points=[[0,0.5],[1,0.5]];portConstraint=eastwest;whiteSpace=wrap;html=1;" vertex="1" parent="uXSnHk2QVBUiQrGJkphu-62">
          <mxGeometry y="60" width="160" height="40" as="geometry" />
        </mxCell>
        <mxCell id="uXSnHk2QVBUiQrGJkphu-66" style="edgeStyle=orthogonalEdgeStyle;rounded=0;orthogonalLoop=1;jettySize=auto;html=1;exitX=0;exitY=0.5;exitDx=0;exitDy=0;entryX=1;entryY=0.5;entryDx=0;entryDy=0;endArrow=block;endFill=0;" edge="1" parent="1" source="uXSnHk2QVBUiQrGJkphu-10" target="uXSnHk2QVBUiQrGJkphu-63">
          <mxGeometry relative="1" as="geometry" />
        </mxCell>
        <mxCell id="uXSnHk2QVBUiQrGJkphu-67" style="edgeStyle=orthogonalEdgeStyle;rounded=0;orthogonalLoop=1;jettySize=auto;html=1;exitX=1;exitY=0.5;exitDx=0;exitDy=0;entryX=0;entryY=0.5;entryDx=0;entryDy=0;endArrow=block;endFill=0;" edge="1" parent="1" source="BsDPf5AFC3qmwfieT4uP-6" target="uXSnHk2QVBUiQrGJkphu-63">
          <mxGeometry relative="1" as="geometry">
            <Array as="points">
              <mxPoint x="200" y="289" />
              <mxPoint x="200" y="447" />
            </Array>
          </mxGeometry>
        </mxCell>
      </root>
    </mxGraphModel>
  </diagram>
</mxfile>
